<svg xmlns="http://www.w3.org/2000/svg" xmlns:xlink="http://www.w3.org/1999/xlink" width="500" zoomAndPan="magnify" viewBox="0 0 375 374.999991" height="500" preserveAspectRatio="xMidYMid meet" version="1.0"><defs><clipPath id="aa4e9b7fbb"><path d="M 90.996094 79.125 L 324.65625 79.125 L 324.65625 313.125 L 90.996094 313.125 Z M 90.996094 79.125 " clip-rule="nonzero"/></clipPath><clipPath id="05534055e5"><path d="M 137.570312 126.039062 L 325 126.039062 L 325 313.539062 L 137.570312 313.539062 Z M 137.570312 126.039062 " clip-rule="nonzero"/></clipPath><clipPath id="536f994575"><path d="M 174.988281 163.191406 L 324.71875 163.191406 L 324.71875 313.191406 L 174.988281 313.191406 Z M 174.988281 163.191406 " clip-rule="nonzero"/></clipPath></defs><g clip-path="url(#aa4e9b7fbb)"><path fill="#ff5e00" d="M 173.292969 161.421875 C 153.523438 181.191406 138.054688 204.183594 127.308594 229.753906 C 116.136719 256.183594 110.550781 284.332031 110.335938 313.125 L 90.996094 313.125 C 90.996094 281.539062 97.226562 251.027344 109.472656 222.019531 C 121.078125 194.300781 138.054688 169.160156 159.539062 147.671875 C 181.027344 126.183594 206.167969 109.207031 233.886719 97.390625 C 262.894531 85.359375 293.410156 79.125 324.996094 79.125 L 324.996094 98.464844 C 295.988281 98.464844 268.054688 104.265625 241.625 115.441406 C 215.839844 126.183594 193.0625 141.65625 173.292969 161.421875 Z M 173.292969 161.421875 " fill-opacity="1" fill-rule="nonzero"/></g><g clip-path="url(#05534055e5)"><path fill="#ff5e00" d="M 203.441406 191.984375 C 187.601562 207.824219 175.207031 226.246094 166.597656 246.734375 C 157.644531 267.914062 153.167969 290.46875 152.996094 313.539062 L 137.5 313.539062 C 137.5 288.230469 142.492188 263.78125 152.304688 240.539062 C 161.605469 218.328125 175.207031 198.183594 192.421875 180.964844 C 209.640625 163.746094 229.785156 150.144531 251.996094 140.675781 C 275.238281 131.03125 299.6875 126.039062 325 126.039062 L 325 141.535156 C 301.753906 141.535156 279.371094 146.183594 258.195312 155.136719 C 237.535156 163.746094 219.28125 176.144531 203.441406 191.984375 Z M 203.441406 191.984375 " fill-opacity="1" fill-rule="nonzero"/></g><g clip-path="url(#536f994575)"><path fill="#ff5e00" d="M 227.742188 215.945312 C 215.070312 228.617188 205.15625 243.355469 198.265625 259.746094 C 191.105469 276.6875 187.523438 294.734375 187.386719 313.191406 L 174.988281 313.191406 C 174.988281 292.941406 178.984375 273.382812 186.835938 254.789062 C 194.273438 237.019531 205.15625 220.902344 218.929688 207.128906 C 232.703125 193.355469 248.820312 182.472656 266.585938 174.898438 C 285.183594 167.183594 304.742188 163.191406 324.988281 163.191406 L 324.988281 175.585938 C 306.394531 175.585938 288.488281 179.304688 271.546875 186.46875 C 255.015625 193.355469 240.417969 203.273438 227.742188 215.945312 Z M 227.742188 215.945312 " fill-opacity="1" fill-rule="nonzero"/></g></svg>