<svg width="181" height="158" viewBox="0 0 181 158" fill="none" xmlns="http://www.w3.org/2000/svg">
<mask id="mask0_57_29" style="mask-type:luminance" maskUnits="userSpaceOnUse" x="0" y="0" width="181" height="158">
<path d="M0 0H180.75V157.63H0V0Z" fill="white"/>
</mask>
<g mask="url(#mask0_57_29)">
<path d="M20.9846 0.0390625L11.8567 8.45363L2.66355 0.0390625L0.0627604 2.41694L9.25591 10.774L0.0627604 19.1886L2.66355 21.5688L11.8567 13.1542L21.0498 21.5688L23.6481 19.1886L14.3922 10.774L23.5854 2.35945L20.9846 0.0390625ZM73.3519 0.0390625L64.1587 8.45363L55.0308 0.0390625L52.43 2.41694L61.6232 10.8315L52.4953 19.1886L55.0936 21.5688L64.224 13.1542L73.4171 21.5688L76.0154 19.1886L66.8223 10.774L76.0154 2.35945L73.3519 0.0390625ZM125.784 0.0390625L116.591 8.45363L107.398 0.0390625L104.797 2.41694L113.99 10.8315L104.797 19.2461L107.398 21.6263L116.591 13.1542L125.784 21.5688L128.383 19.1886L119.19 10.774L128.383 2.35945L125.784 0.0390625ZM180.687 2.41694L178.086 0.0390625L168.896 8.45363L159.828 0.0390625L157.23 2.41694L166.423 10.8315L157.23 19.2461L159.828 21.6263L168.959 13.1542L178.152 21.5688L180.75 19.1886L171.557 10.774L180.687 2.41694ZM20.9846 45.3614L11.8567 53.7759L2.66355 45.3614L0.0627604 47.7392L9.25591 56.0963L0.0627604 64.5109L2.66355 66.8911L11.8567 58.4765L21.0498 66.8911L23.6481 64.5109L14.3922 56.0963L23.5854 47.6818L20.9846 45.3614ZM73.3519 45.3614L64.224 53.7759L55.0308 45.3614L52.43 47.7392L61.6232 56.1538L52.43 64.5684L55.0308 66.9486L64.224 58.534L73.4171 66.9486L76.0154 64.5684L66.7595 56.0963L75.9527 47.6818L73.3519 45.3614ZM125.784 45.3614L116.591 53.7759L107.398 45.3614L104.797 47.7392L113.99 56.1538L104.797 64.5684L107.398 66.9486L116.591 58.534L125.784 66.9486L128.383 64.5684L119.19 56.0963L128.383 47.6818L125.784 45.3614ZM178.152 45.3614L168.959 53.7759L159.765 45.3614L157.167 47.7392L166.358 56.1538L157.167 64.5684L159.765 66.9486L168.959 58.534L178.152 66.9486L180.75 64.5684L171.557 56.0963L180.75 47.6818L178.152 45.3614ZM20.9846 90.6837L11.7914 99.0982L2.60079 90.6837L0 93.0615L9.25591 101.476L0.0627604 109.833L2.66355 112.213L11.8567 103.799L21.0498 112.213L23.6481 109.833L14.455 101.419L23.6481 93.0041L20.9846 90.6837ZM73.3519 90.6837L64.1587 99.0982L54.9681 90.6837L52.3673 93.0615L61.5604 101.476L52.3673 109.891L54.9681 112.271L64.1587 103.856L73.3519 112.271L75.9527 109.891L66.7595 101.476L75.9527 93.0615L73.3519 90.6837ZM125.784 90.6837L116.591 99.0982L107.398 90.6837L104.797 93.0615L113.99 101.476L104.797 109.891L107.398 112.271L116.591 103.856L125.784 112.271L128.383 109.891L119.19 101.476L128.383 93.0615L125.784 90.6837ZM178.152 90.6837L168.959 99.0982L159.765 90.6837L157.167 93.0615L166.358 101.476L157.167 109.891L159.765 112.271L168.959 103.856L178.152 112.271L180.75 109.891L171.557 101.419L180.75 93.0041L178.152 90.6837ZM20.9846 136.006L11.7914 144.421L2.60079 136.006L0 138.386L9.25591 146.801L0.128031 155.155L2.72631 157.536L11.9195 149.121L21.1126 157.536L23.7109 155.155L14.5177 146.741L23.7109 138.326L20.9846 136.006ZM73.4171 136.006L64.224 144.421L55.0308 136.006L52.43 138.386L61.6232 146.801L52.43 155.215L55.0308 157.593L64.224 149.179L73.4171 157.593L76.0154 155.215L66.8223 146.801L76.0154 138.386L73.4171 136.006ZM125.784 136.006L116.591 144.421L107.398 136.006L104.797 138.386L113.99 146.801L104.797 155.215L107.398 157.593L116.591 149.179L125.784 157.593L128.383 155.215L119.19 146.801L128.383 138.386L125.784 136.006ZM178.152 136.006L168.959 144.421L159.765 136.006L157.167 138.386L166.358 146.801L157.167 155.215L159.765 157.593L168.959 149.179L178.152 157.593L180.75 155.215L171.557 146.741L180.75 138.326L178.152 136.006Z" fill="#FF5E00"/>
</g>
</svg>
