<svg xmlns="http://www.w3.org/2000/svg" xmlns:xlink="http://www.w3.org/1999/xlink" width="180" zoomAndPan="magnify" viewBox="0 0 135 67.499998" height="90" preserveAspectRatio="xMidYMid meet" version="1.0"><defs><clipPath id="e13fc789a2"><path d="M 0.496094 0 L 134.503906 0 L 134.503906 67.003906 L 0.496094 67.003906 Z M 0.496094 0 " clip-rule="nonzero"/></clipPath><clipPath id="eda7af7adb"><path d="M 29.714844 25.644531 L 43.390625 25.644531 L 43.390625 38.699219 L 29.714844 38.699219 Z M 29.714844 25.644531 " clip-rule="nonzero"/></clipPath><clipPath id="15f15ae53d"><path d="M 45.78125 25.644531 L 59.191406 25.644531 L 59.191406 38.433594 L 45.78125 38.433594 Z M 45.78125 25.644531 " clip-rule="nonzero"/></clipPath><clipPath id="2686be1424"><path d="M 94.726562 25.644531 L 109.066406 25.644531 L 109.066406 39.367188 L 94.726562 39.367188 Z M 94.726562 25.644531 " clip-rule="nonzero"/></clipPath><clipPath id="9d115cef83"><path d="M 61.582031 25.644531 L 75.390625 25.644531 L 75.390625 38.699219 L 61.582031 38.699219 Z M 61.582031 25.644531 " clip-rule="nonzero"/></clipPath><clipPath id="9f84a7d110"><path d="M 78.3125 25.507812 L 92.382812 25.507812 L 92.382812 38.832031 L 78.3125 38.832031 Z M 78.3125 25.507812 " clip-rule="nonzero"/></clipPath></defs><g clip-path="url(#e13fc789a2)"><path fill="#ffffff" d="M 0.496094 0 L 134.503906 0 L 134.503906 74.449219 L 0.496094 74.449219 Z M 0.496094 0 " fill-opacity="1" fill-rule="nonzero"/><path fill="#ffffff" d="M 0.496094 0 L 134.503906 0 L 134.503906 67.003906 L 0.496094 67.003906 Z M 0.496094 0 " fill-opacity="1" fill-rule="nonzero"/><path fill="#ffffff" d="M 0.496094 0 L 134.503906 0 L 134.503906 67.003906 L 0.496094 67.003906 Z M 0.496094 0 " fill-opacity="1" fill-rule="nonzero"/></g><g clip-path="url(#eda7af7adb)"><path fill="#f4c01e" d="M 36.550781 25.644531 L 38.3125 29.617188 C 38.378906 29.773438 38.488281 29.902344 38.621094 30 C 38.757812 30.101562 38.914062 30.160156 39.078125 30.179688 L 43.390625 30.632812 L 40.167969 33.539062 C 40.042969 33.652344 39.953125 33.796875 39.902344 33.953125 C 39.847656 34.113281 39.839844 34.28125 39.875 34.445312 L 40.777344 38.699219 L 37.027344 36.523438 C 36.882812 36.441406 36.71875 36.398438 36.550781 36.398438 C 36.386719 36.398438 36.222656 36.441406 36.078125 36.523438 L 32.328125 38.699219 L 33.230469 34.445312 C 33.261719 34.28125 33.253906 34.113281 33.203125 33.953125 C 33.152344 33.796875 33.058594 33.652344 32.9375 33.539062 L 29.714844 30.632812 L 34.023438 30.179688 C 34.191406 30.160156 34.347656 30.101562 34.480469 30 C 34.617188 29.902344 34.722656 29.773438 34.792969 29.617188 Z M 36.550781 25.644531 " fill-opacity="1" fill-rule="evenodd"/></g><g clip-path="url(#15f15ae53d)"><path fill="#f4c01e" d="M 52.488281 25.644531 L 54.214844 29.539062 C 54.28125 29.6875 54.382812 29.816406 54.515625 29.914062 C 54.648438 30.007812 54.804688 30.070312 54.964844 30.085938 L 59.191406 30.53125 L 56.03125 33.378906 C 55.910156 33.488281 55.820312 33.628906 55.769531 33.785156 C 55.71875 33.941406 55.710938 34.105469 55.746094 34.265625 L 56.628906 38.433594 L 52.953125 36.300781 C 52.8125 36.21875 52.652344 36.175781 52.488281 36.175781 C 52.324219 36.175781 52.164062 36.21875 52.023438 36.300781 L 48.34375 38.433594 L 49.226562 34.265625 C 49.261719 34.105469 49.253906 33.941406 49.203125 33.785156 C 49.152344 33.628906 49.0625 33.488281 48.941406 33.378906 L 45.78125 30.53125 L 50.007812 30.085938 C 50.171875 30.070312 50.324219 30.007812 50.457031 29.914062 C 50.589844 29.816406 50.695312 29.6875 50.761719 29.539062 Z M 52.488281 25.644531 " fill-opacity="1" fill-rule="evenodd"/></g><g clip-path="url(#2686be1424)"><path fill="#f4c01e" d="M 101.894531 25.644531 L 103.742188 29.820312 C 103.8125 29.980469 103.925781 30.121094 104.066406 30.222656 C 104.207031 30.328125 104.375 30.390625 104.546875 30.410156 L 109.066406 30.886719 L 105.6875 33.945312 C 105.558594 34.0625 105.460938 34.210938 105.40625 34.378906 C 105.355469 34.542969 105.34375 34.722656 105.378906 34.894531 L 106.328125 39.367188 L 102.394531 37.078125 C 102.242188 36.992188 102.070312 36.945312 101.894531 36.945312 C 101.722656 36.945312 101.550781 36.992188 101.398438 37.078125 L 97.464844 39.367188 L 98.414062 34.894531 C 98.449219 34.722656 98.4375 34.542969 98.386719 34.378906 C 98.332031 34.210938 98.234375 34.0625 98.105469 33.945312 L 94.726562 30.886719 L 99.246094 30.410156 C 99.417969 30.390625 99.585938 30.328125 99.726562 30.222656 C 99.867188 30.121094 99.980469 29.980469 100.050781 29.820312 Z M 101.894531 25.644531 " fill-opacity="1" fill-rule="evenodd"/></g><g clip-path="url(#9d115cef83)"><path fill="#f4c01e" d="M 68.484375 25.644531 L 70.261719 29.617188 C 70.332031 29.773438 70.441406 29.902344 70.574219 30 C 70.710938 30.101562 70.871094 30.160156 71.039062 30.179688 L 75.390625 30.632812 L 72.136719 33.539062 C 72.011719 33.652344 71.917969 33.796875 71.867188 33.953125 C 71.816406 34.113281 71.804688 34.28125 71.839844 34.445312 L 72.753906 38.699219 L 68.964844 36.523438 C 68.820312 36.441406 68.652344 36.398438 68.484375 36.398438 C 68.316406 36.398438 68.152344 36.441406 68.007812 36.523438 L 64.21875 38.699219 L 65.128906 34.445312 C 65.164062 34.28125 65.15625 34.113281 65.105469 33.953125 C 65.050781 33.796875 64.960938 33.652344 64.835938 33.539062 L 61.582031 30.632812 L 65.933594 30.179688 C 66.101562 30.160156 66.261719 30.101562 66.394531 30 C 66.53125 29.902344 66.640625 29.773438 66.707031 29.617188 Z M 68.484375 25.644531 " fill-opacity="1" fill-rule="evenodd"/></g><g clip-path="url(#9f84a7d110)"><path fill="#f4c01e" d="M 85.347656 25.507812 L 87.160156 29.5625 C 87.230469 29.71875 87.339844 29.855469 87.476562 29.953125 C 87.617188 30.054688 87.777344 30.117188 87.949219 30.136719 L 92.382812 30.597656 L 89.070312 33.566406 C 88.941406 33.679688 88.847656 33.824219 88.792969 33.988281 C 88.742188 34.148438 88.730469 34.324219 88.769531 34.488281 L 89.695312 38.832031 L 85.835938 36.609375 C 85.6875 36.527344 85.519531 36.480469 85.347656 36.480469 C 85.175781 36.480469 85.007812 36.527344 84.859375 36.609375 L 81 38.832031 L 81.929688 34.488281 C 81.964844 34.324219 81.953125 34.148438 81.902344 33.988281 C 81.847656 33.824219 81.753906 33.679688 81.625 33.566406 L 78.3125 30.597656 L 82.746094 30.136719 C 82.917969 30.117188 83.078125 30.054688 83.21875 29.953125 C 83.355469 29.855469 83.464844 29.71875 83.535156 29.5625 Z M 85.347656 25.507812 " fill-opacity="1" fill-rule="evenodd"/></g></svg>